<?xml version="1.0" standalone="no"?><!DOCTYPE svg PUBLIC "-//W3C//DTD SVG 1.1//EN"
        "http://www.w3.org/Graphics/SVG/1.1/DTD/svg11.dtd">
<svg t="1562246732623" class="icon" viewBox="0 0 1024 1024" version="1.1" xmlns="http://www.w3.org/2000/svg" p-id="9037"
     width="20" height="20">
    <defs>
        <style type="text/css"></style>
    </defs>
    <path d="M858.4192 355.0208c44.8512-69.12 25.1904-161.5872-43.9296-206.4384-40.2432-26.112-88.4736-30.4128-130.56-15.6672v-0.1024C635.2896 148.48 545.1776 197.5296 515.1744 243.712c-52.9408 81.5104-47.7184 183.9104 5.12 258.6624l259.2768-86.7328c31.4368-10.24 59.5968-30.8224 78.848-60.6208zM659.456 144.0768s-0.1024 0 0 0c-0.1024 0 0 0 0 0z m-10.3424 6.4512z"
          fill="#FBBC05" p-id="9038"></path>
    <path d="M164.5568 669.5936c-44.8512 69.12-25.1904 161.5872 43.9296 206.4384 40.2432 26.112 88.4736 30.4128 130.56 15.6672v0.1024c48.64-15.6672 138.752-64.7168 168.7552-111.0016 52.9408-81.5104 47.7184-183.9104-5.12-258.6624l-259.2768 86.7328c-31.4368 10.3424-59.5968 30.9248-78.848 60.7232z m198.9632 210.944s0.1024 0 0 0c0.1024 0 0 0 0 0z m10.3424-6.3488z"
          fill="#4285F4" p-id="9039"></path>
    <path d="M265.0112 381.1328m-164.6592 0a164.6592 164.6592 0 1 0 329.3184 0 164.6592 164.6592 0 1 0-329.3184 0Z"
          fill="#EB4335" p-id="9040"></path>
    <path d="M755.4048 651.264m-164.6592 0a164.6592 164.6592 0 1 0 329.3184 0 164.6592 164.6592 0 1 0-329.3184 0Z"
          fill="#34A853" p-id="9041"></path>
</svg>